 http://s13.postimage.org/5hvypyqbr/hhhhh.png



Shake Rattle And Roll 14 The Invasion 2012 CAMRip EP



info:


Imdb                             : http://www.imdb.com/title/tt2538176/
Genres                           : Action | Adventure | Comedy 
Director                         : Chito S. Roño
Audio Language                   : Filipino | Tagalog
Country                          : Philippines


General
Complete name                            : Shake Rattle And Roll 14 The Invasion 2012 CAMRip EP.avi
Format                                   : AVI
Format/Info                              : Audio Video Interleave
File size                                : 1.26 GiB
Duration                                 : 1h 57mn
Overall bit rate                         : 1 536 Kbps
Writing application                      : VirtualDubMod

Video
ID                                       : 0
Format                                   : AVC
Format/Info                              : Advanced Video Codec
Format profile                           : High@L3.1
Format settings, CABAC                   : Yes
Format settings, ReFrames                : 3 frames
Codec ID                                 : H264
Duration                                 : 1h 57mn
Bit rate                                 : 1 334 Kbps
Width                                    : 1 280 pixels
Height                                   : 720 pixels
Display aspect ratio                     : 16:9
Frame rate                               : 25.000 fps
Color space                              : YUV
Chroma subsampling                       : 4:2:0
Bit depth                                : 8 bits
Scan type                                : Progressive
Bits/(Pixel*Frame)                       : 0.058
Stream size                              : 1.10 GiB (87%)
Writing library                          : x264 core 119 r2106kMod 07efeb4
Encoding settings                        : cabac=1 / ref=3 / deblock=1:0:0

Audio
ID                                       : 1
Format                                   : MPEG Audio
Format version                           : Version 1
Format profile                           : Layer 3
Codec ID                                 : 55
Codec ID/Hint                            : MP3
Duration                                 : 1h 57mn
Bit rate mode                            : Constant
Bit rate                                 : 192 Kbps
Channel(s)                               : 2 channels
Sampling rate                            : 44.1 KHz
Compression mode                         : Lossy
Stream size                              : 162 MiB (12%)
Alignment                                : Split accross interleaves
Interleave, duration                     : 40 ms (1.00 video frame)
Interleave, preload duration             : 500 ms
Writing library                          : LAMELAME_MAJOR_VERSI




cast:


Pamana

Herbert Bautista as Donald
Janice de Belen as Myra
Empress as Cynthia
Dennis Padilla as Benjie
Arlene Muhlach as Faye
Snooky Serna as Rosalda
Dimples Romana as Filomena
Gerald Pesigan as Felimon
Ivan Dorschner as Emerson
Fabio Ide as Kon De Nado
Anna Vicente as Gladys
Eri Neeman as Benedict

Lost Command

Dennis Trillo as Master Sgt. Martin Barrientos
Paulo Avelino as Corp. Lamberto Upaon
Martin Escudero as Private Solomon Conde
Ella Cruz as Linda
Rommel Padilla
Alex Castro as Private Hilario Tabios
JC Tiuseco as Private First Class Tomas Pugeda
Makisig Morales as Bunag
AJ Dee
Chris Pasturan
Benz Sangalang
Ronnie Lazaro
Roi Vinzon


Unwanted

Vhong Navarro as Hank
Lovi Poe as Kate
Eula Caballero as Ming
Albie Casino as Neil
Carlo Aquino as Rex
Eric Tai as Tom
Jairus Aquino
Chokoleit




plot:

Pamana

An uncle leaves an inheritance to his nephews and nieces. Once the cousins are gathered for the reading of the will, they learn that their uncle does not only leave them a huge amount of money but he also wants them to have his collection of comic books. The cousins soon realize the horrors that the comics are capable of. This was written by Ricky Lee who also wrote the movie "Himala".

Lost Command

A simple military operation, turns into carnage when a group of soldiers encounters an unexplained phenomenon in the jungle. The leader of the platoon, Martin Barrientos (Dennis Trillo), being the last man standing tries to combat his former men, who are now living dead, in one grueling battle for survival.

Unwanted

Hank and Kate, together with others who are holed up in a mall try to escape the sea-animal creatures that appeared following an explosion.



ScreenShot:

 
http://s13.postimage.org/vwfqlbd8n/image.jpg 
http://s13.postimage.org/97vliv26f/image.jpg 
http://s13.postimage.org/6f2dyu1tz/image.jpg 
http://s13.postimage.org/oj5ejgzif/image.jpg 
http://s13.postimage.org/tkcsku6yv/image.jpg